<?xml version="1.0" encoding="utf-8"?><svg viewBox="0 0 181 59" xmlns="http://www.w3.org/2000/svg" xmlns:xlink="http://www.w3.org/1999/xlink"><style>:root>svg{display:none}:root>svg:target{display:block}</style><svg fill="none" viewBox="0 0 181 15" id="arrow" xmlns="http://www.w3.org/2000/svg"><path d="M180.707 8.207a1 1 0 000-1.414L174.343.429a1 1 0 10-1.414 1.414l5.657 5.657-5.657 5.657a1 1 0 101.414 1.414l6.364-6.364zM0 8.5h180v-2H0v2z" fill="#FF650C"/></svg><svg fill="none" viewBox="0 0 60 59" id="icon-1" xmlns="http://www.w3.org/2000/svg"><g clip-path="url(#bclip0)" fill="#FF650C"><path d="M40.704 36.76c-.636 0-1.152.516-1.152 1.152v7.951a5.768 5.768 0 01-5.762 5.762H21.35c-.637 0-1.152.515-1.153 1.151l-.001 2.292-2.75-2.75a1.153 1.153 0 00-1.058-.693H8.9a5.768 5.768 0 01-5.762-5.762V28.117A5.768 5.768 0 018.9 22.355h11.638a1.152 1.152 0 000-2.304H8.9c-4.448 0-8.067 3.618-8.067 8.066v17.746c0 4.448 3.619 8.067 8.067 8.067h6.897l4.733 4.733a1.152 1.152 0 001.967-.814l.003-3.92h11.29c4.448 0 8.067-3.618 8.067-8.066v-7.95c0-.637-.516-1.153-1.153-1.153z"/><path d="M43.085 0h-2.917C30.933 0 23.42 7.514 23.42 16.749s7.514 16.749 16.749 16.749h2.916c1.442 0 2.869-.183 4.252-.545l4.308 4.305a1.153 1.153 0 001.967-.815v-6.667a16.908 16.908 0 004.402-5.427 16.568 16.568 0 001.82-7.6C59.833 7.514 52.32 0 43.085 0zm8.68 28.294a1.153 1.153 0 00-.459.92v4.449l-2.82-2.819a1.153 1.153 0 00-1.153-.286 14.445 14.445 0 01-4.248.635h-2.917c-7.965 0-14.444-6.48-14.444-14.444 0-7.965 6.48-14.444 14.444-14.444h2.917c7.964 0 14.444 6.48 14.444 14.444 0 4.578-2.101 8.786-5.764 11.545z"/><path d="M46.816 12.609a4.89 4.89 0 00-4.524-4.524 4.841 4.841 0 00-3.672 1.3 4.896 4.896 0 00-1.55 3.567 1.152 1.152 0 002.305 0c0-.72.29-1.39.818-1.882a2.576 2.576 0 014.323 1.697 2.563 2.563 0 01-2.002 2.697 2.18 2.18 0 00-1.718 2.138v2.768a1.152 1.152 0 002.305 0v-2.676a4.854 4.854 0 003.715-5.085zM42.764 24.114a1.161 1.161 0 00-.815-.338c-.303 0-.6.123-.815.338a1.161 1.161 0 00-.337.814c0 .305.123.602.337.816.215.215.512.337.815.337.303 0 .6-.122.815-.337.214-.215.337-.511.337-.816 0-.303-.123-.6-.337-.814zM32.523 35.723H8.208a1.152 1.152 0 000 2.304h24.315a1.152 1.152 0 100-2.304zM33.337 42.513a1.161 1.161 0 00-.814-.337c-.303 0-.6.123-.815.337a1.16 1.16 0 00-.338.815c0 .303.124.6.338.815.214.214.512.337.815.337.303 0 .6-.123.814-.337.215-.215.338-.51.338-.815 0-.303-.123-.6-.338-.815zM27.99 42.176H8.208a1.152 1.152 0 000 2.304H27.99a1.152 1.152 0 000-2.304zM25.032 29.27H8.208a1.152 1.152 0 000 2.304h16.825a1.152 1.152 0 100-2.305z"/></g><defs><clipPath id="bclip0"><path fill="#fff" transform="translate(.833)" d="M0 0h59v59H0z"/></clipPath></defs></svg><svg fill="none" viewBox="0 0 60 59" id="icon-2" xmlns="http://www.w3.org/2000/svg"><g clip-path="url(#cclip0)"><g clip-path="url(#cclip1)" fill="#FF650C"><path d="M39.394 52.266h6.188a1.153 1.153 0 100-2.311h-6.188a1.153 1.153 0 100 2.311zM51.768 6.06h-1.55a1.164 1.164 0 00-1.103.704 1.15 1.15 0 00.649 1.528c.144.056.299.082.454.078h1.55a1.164 1.164 0 001.102-.705 1.15 1.15 0 00-.648-1.528 1.164 1.164 0 00-.454-.078z"/><path d="M47.128 56.69H5.37a1.94 1.94 0 01-1.367-.565 1.923 1.923 0 01-.566-1.361V4.236c0-.51.204-.999.566-1.36.362-.36.852-.564 1.365-.565H8.46a1.164 1.164 0 001.072-.713 1.151 1.151 0 00-.628-1.51A1.164 1.164 0 008.46 0H5.368A4.266 4.266 0 002.36 1.242a4.232 4.232 0 00-1.247 2.994v50.528c.001 1.123.45 2.2 1.247 2.994A4.266 4.266 0 005.368 59h41.758a1.163 1.163 0 001.103-.705 1.153 1.153 0 00-.649-1.527 1.163 1.163 0 00-.454-.078h.002z"/><path d="M23.927 13.761a1.162 1.162 0 00-1.006.579l-5.85 10.095h-6.29a1.165 1.165 0 00-1.103.705 1.152 1.152 0 00.649 1.527c.145.056.299.083.454.078h6.29l5.852 10.096a1.156 1.156 0 001.007.578h12.376a1.162 1.162 0 001.006-.578l5.852-10.096h6.291a1.153 1.153 0 000-2.31h-6.297L37.304 14.34a1.157 1.157 0 00-1.006-.579H23.927zm11.7 21.347h-11.03l-4.846-8.363h3.893a6.543 6.543 0 002.253 3.865 6.59 6.59 0 008.436 0 6.542 6.542 0 002.253-3.865h3.893l-4.851 8.363zm-1.423-8.363a4.238 4.238 0 01-1.528 2.224 4.266 4.266 0 01-5.13 0 4.238 4.238 0 01-1.528-2.224h8.186zm-8.181-2.31a4.236 4.236 0 011.527-2.225 4.264 4.264 0 015.13 0 4.236 4.236 0 011.527 2.224h-8.184zm14.456 0h-3.894a6.542 6.542 0 00-2.252-3.867 6.59 6.59 0 00-8.437 0 6.543 6.543 0 00-2.252 3.866H19.75l4.847-8.361h11.03l4.85 8.361zM37.847 12.992a1.163 1.163 0 00.966-.515l2.749-4.11h4.018a1.164 1.164 0 001.103-.705 1.15 1.15 0 00-.648-1.527 1.164 1.164 0 00-.455-.078h-4.64a1.163 1.163 0 00-.964.514l-3.093 4.624a1.154 1.154 0 00.368 1.631c.18.108.386.165.596.166zM8.46 12.99h4.64a1.153 1.153 0 000-2.31H8.46a1.165 1.165 0 00-1.103.706 1.152 1.152 0 00.648 1.527c.145.056.3.082.455.078zM10.007 43.032H8.46a1.162 1.162 0 00-1.16 1.155c0 .306.122.6.34.817.217.217.512.339.82.339h1.547c.308 0 .603-.122.82-.339a1.153 1.153 0 00-.82-1.972zM10.007 49.955H8.46a1.153 1.153 0 100 2.311h1.547a1.153 1.153 0 100-2.311zM17.741 6.06H8.46a1.164 1.164 0 00-1.103.704 1.152 1.152 0 00.648 1.528c.145.056.3.082.455.078h9.28c.302-.01.588-.135.798-.35a1.153 1.153 0 00-.798-1.96h.001z"/><path d="M54.861 0H13.103a1.153 1.153 0 100 2.311H54.86a1.94 1.94 0 011.367.565c.362.36.566.85.567 1.36v50.529c0 .51-.205 1-.567 1.36a1.94 1.94 0 01-1.367.565h-3.093a1.163 1.163 0 00-1.103.705 1.15 1.15 0 00.648 1.527c.145.056.3.083.455.078h3.093a4.266 4.266 0 003.006-1.242 4.232 4.232 0 001.247-2.993V4.236a4.232 4.232 0 00-1.247-2.994A4.266 4.266 0 0054.861 0zM34.755 49.955h-1.542a1.153 1.153 0 100 2.311h1.547a1.153 1.153 0 100-2.311h-.005zM14.648 45.343h4.64a1.163 1.163 0 00.965-.515l3.093-4.622a1.153 1.153 0 00-.731-1.799 1.165 1.165 0 00-1.2.518l-2.748 4.109h-4.019a1.153 1.153 0 100 2.311v-.002zM14.648 52.266h6.188a1.153 1.153 0 100-2.311h-6.188a1.153 1.153 0 100 2.311z"/></g></g><defs><clipPath id="cclip0"><path fill="#fff" transform="translate(.5)" d="M0 0h59v59H0z"/></clipPath><clipPath id="cclip1"><path fill="#fff" transform="translate(1.114)" d="M0 0h58v59H0z"/></clipPath></defs></svg><svg fill="none" viewBox="0 0 60 59" id="icon-3" xmlns="http://www.w3.org/2000/svg"><path d="M45.661 57a4.458 4.458 0 004.453-4.453V4.453A4.458 4.458 0 0045.661 0H13.595a4.458 4.458 0 00-4.453 4.453V52.547A4.458 4.458 0 0013.595 57h32.066zm2.672-47.203a2.675 2.675 0 01-2.672 2.672H13.595a2.675 2.675 0 01-2.671-2.672v-.024a4.406 4.406 0 002.671.913h32.066a4.412 4.412 0 002.672-.913v.024zm-37.41 3.54a4.406 4.406 0 002.672.913h32.066a4.412 4.412 0 002.672-.913v35.647a2.675 2.675 0 01-2.672 2.672H13.595a2.675 2.675 0 01-2.671-2.672V13.337zm0-8.884a2.675 2.675 0 012.672-2.672h32.066a2.675 2.675 0 012.672 2.672v1.779a2.675 2.675 0 01-2.672 2.672H13.595a2.675 2.675 0 01-2.671-2.671v-1.78zm0 48.094v-.022a4.406 4.406 0 002.672.913h32.066a4.412 4.412 0 002.672-.913v.022a2.675 2.675 0 01-2.672 2.672H13.595a2.675 2.675 0 01-2.671-2.672z" fill="#FF650C"/><path d="M13.595 6.234h32.063a.89.89 0 100-1.78H13.595a.89.89 0 100 1.78zM29.627 41.86c3.33 0 6.461-1.297 8.816-3.653 4.862-4.862 4.862-12.772 0-17.634a12.387 12.387 0 00-8.816-3.651c-3.33 0-6.462 1.297-8.816 3.652-4.862 4.862-4.862 12.772 0 17.634a12.387 12.387 0 008.816 3.651zM22.07 21.833a10.615 10.615 0 017.557-3.13c2.854 0 5.539 1.11 7.557 3.13 4.167 4.167 4.167 10.947 0 15.115a10.618 10.618 0 01-7.557 3.13 10.615 10.615 0 01-7.557-3.131c-4.167-4.167-4.167-10.948 0-15.114z" fill="#FF650C"/><path d="M24.588 37.096a2.66 2.66 0 001.889-.781l3.147-3.148a.89.89 0 000-1.26l-.628-.627.695-.694a4.43 4.43 0 002.456.738 4.428 4.428 0 003.149-1.304c1.581-1.582 1.545-6.07 1.522-6.953a.893.893 0 00-.868-.868s-.13-.004-.357-.004c-1.893 0-5.268.199-6.595 1.526a4.46 4.46 0 00-.566 5.604l-.696.694-.63-.632a.89.89 0 00-1.26 0L22.7 32.535a2.676 2.676 0 000 3.78 2.663 2.663 0 001.889.78zm5.67-12.115c.556-.556 2.442-.944 4.78-.997-.042 1.825-.34 4.114-1.002 4.776-1.01 1.01-2.766 1.008-3.777.002v-.002h-.003a2.676 2.676 0 01.001-3.779zm-6.3 10.074a.892.892 0 010-1.26l2.518-2.518.627.628.002.004.004.002.626.626-2.518 2.518a.893.893 0 01-1.259 0zM18.049 46.328h23.156a.89.89 0 100-1.78H18.049a.89.89 0 100 1.78zM35.847 47.222h-12.44a.89.89 0 100 1.781h12.44a.89.89 0 100-1.781z" fill="#FF650C"/></svg><svg fill="none" viewBox="0 0 49 59" id="icon-4" xmlns="http://www.w3.org/2000/svg"><path d="M46.312 43.468a13.022 13.022 0 00-5.167-4.634 1.146 1.146 0 00-.655-.301 12.054 12.054 0 00-4.738-.967h-3.457v-3.04c2-1.716 3.439-3.99 4.136-6.524h.473a4.615 4.615 0 004.61-4.61 4.591 4.591 0 00-1.225-3.123 3.434 3.434 0 001.224-2.638 3.462 3.462 0 00-2.344-3.272c-.407-5.3-4.126-9.828-9.246-11.247C29.619 1.528 28.312 0 26.533 0h-4.61c-1.778 0-3.086 1.528-3.39 3.112-5.12 1.42-8.838 5.947-9.246 11.245-.495.168-.95.449-1.331.83a3.45 3.45 0 00.212 5.081 4.591 4.591 0 00-1.225 3.125 4.615 4.615 0 004.61 4.609h.47a13.245 13.245 0 004.139 6.523v3.041h-3.457c-1.636 0-3.228.326-4.739.967a1.146 1.146 0 00-.654.3 13.023 13.023 0 00-5.168 4.634 13.102 13.102 0 00-2.115 7.12v7.26C.03 58.485.545 59 1.181 59h46.094c.637 0 1.153-.516 1.153-1.152v-7.26a13.1 13.1 0 00-2.116-7.12zM6.943 56.695h-4.61v-6.107c0-3.505 1.796-6.865 4.61-8.86v14.967zm29.961-30.998h-.052c.034-.383.052-.768.052-1.152v-3.457a2.307 2.307 0 012.305 2.305 2.307 2.307 0 01-2.305 2.304zM18.467 5.547v5.17a1.152 1.152 0 002.304 0V4.04 3.803c0-.714.603-1.498 1.153-1.498h4.609c.55 0 1.152.784 1.152 1.498V10.717a1.152 1.152 0 102.305 0v-5.17a10.417 10.417 0 016.85 8.627H11.617a10.417 10.417 0 016.85-8.627zm-6.914 20.15a2.307 2.307 0 01-2.305-2.304 2.307 2.307 0 012.305-2.305v3.457c0 .384.018.769.052 1.152h-.052zm0-6.914H10.4a1.154 1.154 0 01-.814-1.967c.218-.217.507-.337.814-.337h27.657a1.154 1.154 0 01.814 1.966 1.144 1.144 0 01-.815.338H11.553zm2.514 7.857l-.008-.037a10.627 10.627 0 01-.202-2.058v-3.457H34.6v3.457c0 .689-.068 1.38-.202 2.057l-.007.038a10.916 10.916 0 01-4.015 6.48c-1.803 1.402-3.929 2.142-6.147 2.142-2.218 0-4.343-.74-6.148-2.142a10.927 10.927 0 01-4.014-6.48zm9.009 30.055h-9.219v-2.65a1.152 1.152 0 10-2.304 0v2.65H9.248V40.502a9.755 9.755 0 012.305-.563v7.192a1.152 1.152 0 102.304 0v-7.26h2.963l6.256 6.569v10.255zm-4.61-18.437V36.11a12.11 12.11 0 005.762 1.455c2.025 0 3.984-.499 5.762-1.454v2.146l-5.762 6.05-5.761-6.05zM39.21 56.695h-2.305v-2.65a1.152 1.152 0 10-2.305 0v2.65h-9.218V46.44l6.255-6.569H34.6v7.26a1.152 1.152 0 002.305 0v-7.192c.786.093 1.557.281 2.305.563v16.193zm6.914 0h-4.61V41.73c2.814 1.994 4.61 5.354 4.61 8.859v6.107z" fill="#FF650C"/></svg><svg fill="none" viewBox="0 0 59 59" id="icon-5" xmlns="http://www.w3.org/2000/svg"><path d="M16.255 49.986a1.114 1.114 0 100 2.228 1.114 1.114 0 000-2.228zM31.84 49.986H20.709a1.113 1.113 0 100 2.227h11.133a1.113 1.113 0 100-2.227z" fill="#FF650C"/><path d="M58.114 14.468a1.119 1.119 0 00-.714-1.035L26.225.81A3.316 3.316 0 0024.048 0a3.36 3.36 0 00-2.84 1.584L1.649 13.522c-.33.202-.534.57-.534.95v4.454c0 .615.499 1.113 1.114 1.113H3.34v5.566c0 .615.498 1.114 1.113 1.114h9.574c.615 0 1.114-.499 1.114-1.114V20.04h2.226v25.494h-3.34a3.344 3.344 0 00-3.34 3.34v7.014c0 .614.499 1.113 1.114 1.113h24.492c.615 0 1.113-.498 1.113-1.113v-7.014a3.344 3.344 0 00-3.34-3.34h-3.34V20.04h16.254v4.531c0 .295.118.579.326.787l1.901 1.9v6.666a3.346 3.346 0 00-2.227 3.15 3.344 3.344 0 003.34 3.34 3.355 3.355 0 003.022-1.917 1.113 1.113 0 00-2.014-.95 1.115 1.115 0 01-2.121-.474c0-.614.5-1.113 1.113-1.113.615 0 1.114-.498 1.114-1.113v-7.588l1.9-1.9c.209-.21.326-.492.326-.788v-4.53h3.34c.615 0 1.113-.5 1.113-1.114v-4.453-.005zM22.934 3.34a1.114 1.114 0 012.227 0v7.793h-2.226V3.34zm-1.113 10.02h6.68v7.608l-7.387-7.609h.707zm-.707 22.933H28.5v7.609l-7.387-7.609zm5.868 9.24h-7.387v-7.608l7.387 7.608zm-7.387-11.467v-7.608l7.387 7.608h-7.387zm1.519-9.24H28.5v7.609l-7.387-7.609zm-1.52-2.226V14.99l7.388 7.609h-7.387zm1.114-18.102v6.635h-2.242l-.043.002-.043.003c-.012 0-.023.002-.034.004l-.016.001-10.973 1.503 13.351-8.148zm-7.793 19.994H5.567V20.04h7.348v4.453zm-9.574-6.68v-2.368l14.027-1.922v4.29H3.341zM34.067 47.76c.614 0 1.114.5 1.114 1.113v5.9H12.915v-5.9c0-.614.5-1.113 1.113-1.113h20.04zm-4.363-36.623c-.014-.002-.028-.001-.042-.002l-.048-.002h-2.226V3.682l22.45 9.091-20.134-1.636zm21.73 12.972l-1.113 1.113-1.113-1.113v-4.07h2.227v4.07zm4.454-6.297h-25.16v-4.358l25.16 2.045v2.313z" fill="#FF650C"/></svg><svg fill="none" viewBox="0 0 58 57" id="icon-6" xmlns="http://www.w3.org/2000/svg"><path d="M2.318 44.636L18.543 28.41 1.257 11.125a1.114 1.114 0 010-1.574L10.45.356a1.114 1.114 0 011.575 0l17.286 17.286 15.34-15.34.001-.001.153-.153c.165-.165.378-.274.608-.311L56.608.015a1.113 1.113 0 011.278 1.277l-1.822 11.195c-.037.23-.146.443-.311.608l-.153.152v.002l-15.341 15.34 17.286 17.286c.434.435.434 1.14 0 1.575l-9.195 9.194a1.11 1.11 0 01-1.574 0L29.49 39.358 13.265 55.583A4.809 4.809 0 019.843 57a4.808 4.808 0 01-3.423-1.417L2.318 51.48a4.808 4.808 0 01-1.417-3.423 4.81 4.81 0 011.417-3.422zm8.92-41.918l-7.62 7.62 2.56 2.56 2.88-2.882a1.114 1.114 0 011.575 1.575l-2.88 2.88 3.746 3.748 2.128-2.128a1.113 1.113 0 011.575 1.574l-2.128 2.128 3.747 3.748 2.881-2.881a1.113 1.113 0 011.574 1.574l-2.88 2.881 1.721 1.722 7.62-7.62-16.499-16.5zM45.44 4.663L9.748 40.355l1.313 1.313L46.752 5.976 45.44 4.663zM55.44 2.461l-7.787 1.267 6.52 6.52L55.44 2.46zM32.786 39.505l2.128-2.128a1.114 1.114 0 011.575 1.575L34.36 41.08l3.747 3.747 2.882-2.881a1.114 1.114 0 011.574 1.574l-2.881 2.881 3.747 3.748 2.128-2.129a1.113 1.113 0 011.575 1.575l-2.128 2.128 2.559 2.56 7.62-7.62-16.499-16.5-7.62 7.62 1.722 1.722zm-15.24 8.648l35.691-35.692-4.91-4.91-35.692 35.692 2.023 2.023 29.994-29.994a1.114 1.114 0 011.575 1.574L16.233 46.84l1.313 1.313zM3.893 49.906l4.102 4.102c.493.494 1.15.766 1.848.766.698 0 1.354-.272 1.848-.766l4.28-4.28-7.798-7.798-4.28 4.28a2.596 2.596 0 00-.766 1.848c0 .698.272 1.355.766 1.848z" fill="#FF650C"/></svg><svg class="hhidden" viewBox="0 0 0 0" id="sprite"/></svg>