<svg width="49" height="59" viewBox="0 0 49 59" fill="none" xmlns="http://www.w3.org/2000/svg">
<path d="M46.3124 43.4676C45.0152 41.4597 43.2327 39.8643 41.1445 38.834C40.9684 38.6705 40.742 38.5609 40.4902 38.5329C38.9798 37.8917 37.3878 37.5664 35.7518 37.5664H32.2947V34.5262C34.2953 32.8096 35.7336 30.5361 36.431 28.002H36.9041C39.4457 28.002 41.5135 25.9342 41.5135 23.3926C41.5135 22.1881 41.0486 21.0907 40.2895 20.2686C40.3619 20.207 40.4327 20.143 40.5007 20.0751C41.1538 19.4219 41.5135 18.5539 41.5135 17.6309C41.5135 16.114 40.531 14.8231 39.1693 14.3587C38.7622 9.05973 35.0432 4.53148 29.9228 3.11225C29.6193 1.52755 28.3115 0 26.533 0H21.9236C20.1451 0 18.8373 1.52755 18.5339 3.11225C13.4139 4.53136 9.69532 9.0588 9.2875 14.357C8.79177 14.5252 8.33717 14.8055 7.95597 15.1866C7.30282 15.8398 6.94318 16.7078 6.94318 17.6309C6.94318 18.6868 7.41955 19.6331 8.16812 20.2677C7.40849 21.0897 6.94318 22.1877 6.94318 23.3926C6.94318 25.9342 9.01094 28.002 11.5526 28.002H12.0225C12.6046 30.1173 13.7085 32.0594 15.2483 33.6635C15.5377 33.9652 15.8445 34.2526 16.1619 34.5253V37.5664H12.7049C11.0688 37.5664 9.47672 37.8917 7.96646 38.5328C7.71479 38.5609 7.48823 38.6703 7.31227 38.8339C5.22388 39.8643 3.44143 41.4597 2.14424 43.4674C0.760507 45.6093 0.0291138 48.0715 0.0291138 50.5879V57.8477C0.0291138 58.484 0.545018 59 1.18146 59H47.2752C47.9116 59 48.4276 58.484 48.4276 57.8477V50.5879C48.4276 48.0715 47.6962 45.6093 46.3124 43.4676ZM6.94318 56.6953H2.3338V50.5879C2.3338 47.0828 4.12938 43.7233 6.94318 41.7289V56.6953ZM36.9041 25.6973H36.8516C36.8859 25.3139 36.9041 24.9291 36.9041 24.5449V21.0879C38.1749 21.0879 39.2088 22.1218 39.2088 23.3926C39.2088 24.6634 38.1749 25.6973 36.9041 25.6973ZM18.4666 5.54727V10.7168C18.4666 11.3532 18.9825 11.8691 19.619 11.8691C20.2554 11.8691 20.7713 11.3532 20.7713 10.7168V4.04046C20.7713 4.03747 20.7713 4.03447 20.7713 4.03147V3.80273C20.7713 3.08874 21.3744 2.30469 21.9236 2.30469H26.533C27.0822 2.30469 27.6854 3.08874 27.6854 3.80273V4.03147C27.6854 4.03447 27.6854 4.03747 27.6854 4.04046V10.7168C27.6854 11.3532 28.2013 11.8691 28.8377 11.8691C29.4741 11.8691 29.9901 11.3532 29.9901 10.7168V5.54727C33.711 6.86405 36.3971 10.2312 36.8397 14.1738H11.617C12.0596 10.2312 14.7457 6.86405 18.4666 5.54727ZM11.5526 25.6973C10.2817 25.6973 9.24786 24.6634 9.24786 23.3926C9.24786 22.1218 10.2817 21.0879 11.5526 21.0879V24.5449C11.5526 24.9291 11.5708 25.314 11.6051 25.6973H11.5526ZM11.5526 18.7832H10.4002C9.7648 18.7832 9.24786 18.2663 9.24786 17.6309C9.24786 17.3234 9.36782 17.0341 9.58562 16.8164C9.80352 16.5985 10.0928 16.4785 10.4002 16.4785H38.0565C38.6919 16.4785 39.2088 16.9955 39.2088 17.6309C39.2088 17.9383 39.0888 18.2277 38.871 18.4453C38.6533 18.6632 38.3639 18.7832 38.0565 18.7832H36.9041H35.7518H12.7049H11.5526ZM14.0666 26.6402C14.0643 26.6277 14.0621 26.6152 14.0594 26.6029C13.9256 25.9266 13.8572 25.2344 13.8572 24.5449V21.0879H34.5994V24.5449C34.5994 25.2338 34.5311 25.9255 34.3973 26.6024C34.3945 26.6149 34.3924 26.6274 34.39 26.64C33.8751 29.2105 32.4498 31.5115 30.3745 33.1209C28.5715 34.5215 26.4462 35.2617 24.2283 35.2617C22.0104 35.2617 19.8851 34.5215 18.0805 33.1196C17.6673 32.8 17.2742 32.4463 16.9114 32.068C15.4577 30.5536 14.4745 28.6775 14.0666 26.6402ZM23.076 56.6953H13.8572V54.0449C13.8572 53.4085 13.3413 52.8926 12.7049 52.8926C12.0685 52.8926 11.5526 53.4085 11.5526 54.0449V56.6953H9.24786V40.5019C9.99574 40.2199 10.7662 40.032 11.5526 39.9393V47.1309C11.5526 47.7673 12.0685 48.2832 12.7049 48.2832C13.3413 48.2832 13.8572 47.7673 13.8572 47.1309V39.8711H16.8205L23.076 46.4395V56.6953ZM18.4666 38.2578V36.1115C20.2448 37.0673 22.2033 37.5664 24.2283 37.5664C26.2535 37.5664 28.2121 37.0672 29.9901 36.1116V38.2578L24.2283 44.3076L18.4666 38.2578ZM39.2088 56.6953H36.9041V54.0449C36.9041 53.4085 36.3882 52.8926 35.7518 52.8926C35.1153 52.8926 34.5994 53.4085 34.5994 54.0449V56.6953H25.3807V46.4395L31.6362 39.8711H34.5994V47.1309C34.5994 47.7673 35.1153 48.2832 35.7518 48.2832C36.3882 48.2832 36.9041 47.7673 36.9041 47.1309V39.9393C37.6905 40.032 38.4608 40.22 39.2088 40.502V56.6953ZM46.1229 56.6953H41.5135V41.7288C44.3273 43.7231 46.1229 47.0827 46.1229 50.5879V56.6953Z" fill="#FF650C"/>
</svg>
