<svg width="0" height="0" class="hidden">
  <symbol fill="none" xmlns="http://www.w3.org/2000/svg" viewBox="0 0 60 59" id="icon-1">
    <g clip-path="url(#clip0)">
      <path d="M40.7044 36.7598C40.0681 36.7598 39.5521 37.2757 39.5521 37.9121V45.8633C39.5521 49.0403 36.9674 51.625 33.7904 51.625H21.3487C20.7125 51.625 20.1969 52.1404 20.1964 52.7765L20.1948 55.0676L17.4444 52.3173C17.2663 51.9086 16.8589 51.625 16.3875 51.625H8.89973C5.72272 51.625 3.13802 49.0403 3.13802 45.8633V28.1172C3.13802 24.9402 5.72272 22.3555 8.89973 22.3555H20.5384C21.1747 22.3555 21.6908 21.8396 21.6908 21.2031C21.6908 20.5667 21.1747 20.0508 20.5384 20.0508H8.89973C4.45192 20.0508 0.833328 23.6694 0.833328 28.1172V45.8633C0.833328 50.3111 4.45192 53.9297 8.89973 53.9297H15.7974L20.5302 58.6625C20.7507 58.8829 21.0453 59 21.3453 59C21.4936 59 21.6433 58.9713 21.7856 58.9124C22.2162 58.7343 22.497 58.3144 22.4974 57.8485L22.5002 53.9297H33.7904C38.2382 53.9297 41.8568 50.3111 41.8568 45.8633V37.9121C41.8568 37.2757 41.3407 36.7598 40.7044 36.7598Z" fill="#FF650C"></path>
      <path d="M43.0846 0H40.1681C30.9328 0 23.4193 7.51351 23.4193 16.7489C23.4193 25.9842 30.9328 33.4976 40.168 33.4976H43.0845C44.5259 33.4976 45.9526 33.3145 47.3355 32.9527L51.6437 37.2585C51.8642 37.4787 52.1587 37.5958 52.4585 37.5958C52.6071 37.5958 52.7569 37.5671 52.8994 37.508C53.3299 37.3296 53.6107 36.9095 53.6107 36.4434V29.7764C55.4347 28.2993 56.9499 26.4333 58.0133 24.3487C59.2211 21.9811 59.8333 19.4241 59.8333 16.7489C59.8333 7.51351 52.3198 0 43.0846 0ZM51.7649 28.2941C51.4761 28.5118 51.306 28.8526 51.306 29.2146V33.6626L48.4861 30.8442C48.2667 30.625 47.9724 30.5069 47.6714 30.5069C47.5584 30.5069 47.4444 30.5236 47.333 30.5578C45.9614 30.9794 44.532 31.193 43.0846 31.193H40.1681C32.2035 31.193 25.7239 24.7134 25.7239 16.7489C25.7239 8.78432 32.2036 2.30469 40.1681 2.30469H43.0846C51.0491 2.30469 57.5286 8.78432 57.5286 16.7489C57.5286 21.3272 55.4279 25.5354 51.7649 28.2941Z" fill="#FF650C"></path>
      <path d="M46.8156 12.6089C46.6493 10.1964 44.7046 8.25174 42.2921 8.08545C40.9245 7.99154 39.6193 8.45282 38.6203 9.38541C37.6351 10.3051 37.0701 11.6052 37.0701 12.9524C37.0701 13.5888 37.5861 14.1047 38.2224 14.1047C38.8588 14.1047 39.3748 13.5888 39.3748 12.9524C39.3748 12.2311 39.6654 11.5627 40.193 11.0703C40.72 10.5783 41.4089 10.3348 42.1337 10.3848C43.4045 10.4724 44.4288 11.4967 44.5164 12.7674C44.6049 14.0508 43.7629 15.1849 42.5145 15.4643C41.5029 15.6906 40.7965 16.5696 40.7965 17.6017V20.3702C40.7965 21.0067 41.3126 21.5226 41.9489 21.5226C42.5853 21.5226 43.1012 21.0067 43.1011 20.3702V17.6938C45.4231 17.1329 46.9809 15.0082 46.8156 12.6089Z" fill="#FF650C"></path>
      <path d="M42.7637 24.1138C42.5493 23.8995 42.252 23.7762 41.9489 23.7762C41.6459 23.7762 41.3486 23.8995 41.1342 24.1138C40.9199 24.3282 40.7966 24.6255 40.7966 24.9285C40.7966 25.2327 40.92 25.5301 41.1342 25.7444C41.3486 25.9587 41.6459 26.0809 41.9489 26.0809C42.252 26.0809 42.5493 25.9587 42.7637 25.7444C42.978 25.5289 43.1013 25.2327 43.1013 24.9285C43.1013 24.6255 42.9779 24.3282 42.7637 24.1138Z" fill="#FF650C"></path>
      <path d="M32.5228 35.7227H8.20831C7.57199 35.7227 7.05597 36.2386 7.05597 36.875C7.05597 37.5114 7.57199 38.0273 8.20831 38.0273H32.5228C33.1592 38.0273 33.6751 37.5114 33.6751 36.875C33.6751 36.2386 33.1591 35.7227 32.5228 35.7227Z" fill="#FF650C"></path>
      <path d="M33.3374 42.5134C33.1231 42.2991 32.8258 42.1758 32.5228 42.1758C32.2197 42.1758 31.9224 42.2991 31.7081 42.5134C31.4936 42.7278 31.3704 43.0251 31.3704 43.3281C31.3704 43.6312 31.4937 43.9285 31.7081 44.1428C31.9224 44.3572 32.2197 44.4805 32.5228 44.4805C32.8258 44.4805 33.1231 44.3572 33.3374 44.1428C33.5518 43.9285 33.6751 43.6323 33.6751 43.3281C33.6751 43.0251 33.5517 42.7278 33.3374 42.5134Z" fill="#FF650C"></path>
      <path d="M27.9903 42.1758H8.20831C7.57199 42.1758 7.05597 42.6917 7.05597 43.3281C7.05597 43.9646 7.57199 44.4805 8.20831 44.4805H27.9903C28.6267 44.4805 29.1426 43.9646 29.1426 43.3281C29.1426 42.6917 28.6266 42.1758 27.9903 42.1758Z" fill="#FF650C"></path>
      <path d="M25.0325 29.2695H8.20831C7.57199 29.2695 7.05597 29.7854 7.05597 30.4219C7.05597 31.0583 7.57199 31.5742 8.20831 31.5742H25.0325C25.669 31.5742 26.1849 31.0583 26.1849 30.4219C26.1849 29.7854 25.6689 29.2695 25.0325 29.2695Z" fill="#FF650C"></path>
    </g>
    <defs>
      <clipPath id="clip0">
        <rect width="59" height="59" fill="white" transform="translate(0.833328)"></rect>
      </clipPath>
    </defs>
  </symbol>
  <symbol fill="none" xmlns="http://www.w3.org/2000/svg" viewBox="0 0 60 59" id="icon-2">
    <g clip-path="url(#clip0)">
      <g clip-path="url(#clip1)">
        <path d="M39.3942 52.2661H45.5815C45.8892 52.2661 46.1843 52.1443 46.4019 51.9276C46.6194 51.7109 46.7417 51.417 46.7417 51.1105C46.7417 50.804 46.6194 50.5101 46.4019 50.2934C46.1843 50.0767 45.8892 49.955 45.5815 49.955H39.3942C39.0865 49.955 38.7914 50.0767 38.5738 50.2934C38.3562 50.5101 38.234 50.804 38.234 51.1105C38.234 51.417 38.3562 51.7109 38.5738 51.9276C38.7914 52.1443 39.0865 52.2661 39.3942 52.2661Z" fill="#FF650C"></path>
        <path d="M51.7678 6.05946H50.2182C50.063 6.05491 49.9085 6.08142 49.7638 6.13742C49.6192 6.19341 49.4872 6.27777 49.3758 6.38547C49.2645 6.49318 49.1759 6.62205 49.1155 6.76446C49.055 6.90687 49.0239 7.05991 49.0239 7.21452C49.0239 7.36914 49.055 7.52218 49.1155 7.66459C49.1759 7.80699 49.2645 7.93587 49.3758 8.04357C49.4872 8.15128 49.6192 8.23563 49.7638 8.29163C49.9085 8.34763 50.063 8.37414 50.2182 8.36959H51.7678C51.923 8.37414 52.0775 8.34763 52.2222 8.29163C52.3669 8.23563 52.4988 8.15128 52.6102 8.04357C52.7215 7.93587 52.8101 7.80699 52.8705 7.66459C52.931 7.52218 52.9621 7.36914 52.9621 7.21452C52.9621 7.05991 52.931 6.90687 52.8705 6.76446C52.8101 6.62205 52.7215 6.49318 52.6102 6.38547C52.4988 6.27777 52.3669 6.19341 52.2222 6.13742C52.0775 6.08142 51.923 6.05491 51.7678 6.05946Z" fill="#FF650C"></path>
        <path d="M47.1281 56.6899H5.3696C4.85693 56.6893 4.36543 56.4862 4.00302 56.125C3.6406 55.7639 3.4369 55.2742 3.43663 54.7636V4.23641C3.43716 3.7263 3.64071 3.23721 4.00266 2.87632C4.36461 2.51544 4.85544 2.31219 5.36758 2.31113H8.45972C8.61208 2.31113 8.76295 2.28124 8.90371 2.22317C9.04447 2.1651 9.17236 2.07998 9.2801 1.97267C9.38783 1.86537 9.47329 1.73798 9.53159 1.59778C9.5899 1.45758 9.61991 1.30732 9.61991 1.15557C9.61991 1.00381 9.5899 0.85355 9.53159 0.71335C9.47329 0.57315 9.38783 0.445762 9.2801 0.338457C9.17236 0.231153 9.04447 0.146035 8.90371 0.0879622C8.76295 0.0298896 8.61208 -2.26127e-09 8.45972 0L5.36758 0C4.23986 0.00106141 3.15863 0.447737 2.36121 1.24199C1.56378 2.03624 1.11532 3.11317 1.11426 4.23641L1.11426 54.7636C1.11532 55.8868 1.56378 56.9638 2.36121 57.758C3.15863 58.5523 4.23986 58.9989 5.36758 59H47.1261C47.2812 59.0046 47.4357 58.978 47.5804 58.922C47.7251 58.866 47.8571 58.7817 47.9684 58.674C48.0798 58.5663 48.1683 58.4374 48.2288 58.295C48.2892 58.1526 48.3204 57.9995 48.3204 57.8449C48.3204 57.6903 48.2892 57.5373 48.2288 57.3949C48.1683 57.2525 48.0798 57.1236 47.9684 57.0159C47.8571 56.9082 47.7251 56.8238 47.5804 56.7678C47.4357 56.7118 47.2812 56.6853 47.1261 56.6899H47.1281Z" fill="#FF650C"></path>
        <path d="M23.9275 13.7615C23.7235 13.7612 23.5231 13.8145 23.3464 13.9161C23.1697 14.0176 23.0231 14.1638 22.9213 14.3398L17.0711 24.4352H10.7811C10.626 24.4307 10.4715 24.4572 10.3268 24.5132C10.1821 24.5692 10.0501 24.6535 9.93877 24.7612C9.8274 24.869 9.73886 24.9978 9.6784 25.1402C9.61794 25.2826 9.58679 25.4357 9.58679 25.5903C9.58679 25.7449 9.61794 25.898 9.6784 26.0404C9.73886 26.1828 9.8274 26.3116 9.93877 26.4194C10.0501 26.5271 10.1821 26.6114 10.3268 26.6674C10.4715 26.7234 10.626 26.7499 10.7811 26.7454H17.0711L22.9233 36.8408C23.0251 37.0168 23.1717 37.163 23.3484 37.2645C23.5251 37.3661 23.7255 37.4194 23.9295 37.4191H36.3061C36.5101 37.4194 36.7105 37.3661 36.8872 37.2645C37.0639 37.163 37.2105 37.0168 37.3123 36.8408L43.1645 26.7454H49.4555C49.7571 26.7365 50.0435 26.6109 50.2537 26.3953C50.4639 26.1796 50.5815 25.8909 50.5815 25.5903C50.5815 25.2897 50.4639 25.001 50.2537 24.7853C50.0435 24.5697 49.7571 24.4441 49.4555 24.4352H43.1575L37.3053 14.3398C37.2035 14.1638 37.0568 14.0176 36.8802 13.9161C36.7035 13.8145 36.503 13.7612 36.2991 13.7615H23.9275ZM35.6279 35.1079H24.5976L19.7506 26.7454H23.6437C23.9165 28.2571 24.714 29.6252 25.8969 30.6105C27.0798 31.5959 28.5727 32.1357 30.1148 32.1357C31.6568 32.1357 33.1498 31.5959 34.3327 30.6105C35.5156 29.6252 36.3131 28.2571 36.5858 26.7454H40.4789L35.6279 35.1079ZM34.2041 26.7454C33.9514 27.6326 33.415 28.4134 32.6764 28.9695C31.9377 29.5255 31.0371 29.8263 30.1113 29.8263C29.1854 29.8263 28.2848 29.5255 27.5461 28.9695C26.8075 28.4134 26.2711 27.6326 26.0184 26.7454H34.2041ZM26.0225 24.4342C26.2748 23.5469 26.811 22.7658 27.5496 22.2096C28.2882 21.6533 29.1888 21.3524 30.1148 21.3524C31.0407 21.3524 31.9414 21.6533 32.68 22.2096C33.4186 22.7658 33.9548 23.5469 34.2071 24.4342H26.0225ZM40.4789 24.4342H36.5848C36.3127 22.9222 35.5155 21.5536 34.3326 20.5678C33.1497 19.5821 31.6566 19.042 30.1143 19.042C28.572 19.042 27.0788 19.5821 25.896 20.5678C24.7131 21.5536 23.9159 22.9222 23.6437 24.4342H19.7506L24.5976 16.0727H35.6279L40.4789 24.4342Z" fill="#FF650C"></path>
        <path d="M37.8466 12.9917C38.0377 12.9918 38.226 12.9448 38.3945 12.8549C38.563 12.765 38.7066 12.6351 38.8126 12.4766L41.5616 8.36746H45.5804C45.7356 8.37201 45.8901 8.3455 46.0348 8.2895C46.1795 8.2335 46.3114 8.14915 46.4228 8.04144C46.5341 7.93374 46.6227 7.80486 46.6831 7.66246C46.7436 7.52005 46.7747 7.36701 46.7747 7.21239C46.7747 7.05777 46.7436 6.90473 46.6831 6.76233C46.6227 6.61992 46.5341 6.49105 46.4228 6.38334C46.3114 6.27563 46.1795 6.19128 46.0348 6.13528C45.8901 6.07928 45.7356 6.05277 45.5804 6.05732H40.9407C40.7498 6.05725 40.5618 6.10414 40.3935 6.19383C40.2251 6.28353 40.0816 6.41325 39.9757 6.57147L36.8826 11.1947C36.7664 11.3687 36.6998 11.5709 36.6897 11.7796C36.6796 11.9883 36.7265 12.1959 36.8254 12.3802C36.9242 12.5645 37.0714 12.7187 37.2512 12.8264C37.431 12.9341 37.6368 12.9912 37.8466 12.9917Z" fill="#FF650C"></path>
        <path d="M8.45979 12.9909H13.1005C13.4022 12.982 13.6885 12.8564 13.8987 12.6408C14.1089 12.4251 14.2265 12.1364 14.2265 11.8358C14.2265 11.5352 14.1089 11.2465 13.8987 11.0308C13.6885 10.8152 13.4022 10.6896 13.1005 10.6807H8.45979C8.30462 10.6762 8.15012 10.7027 8.00542 10.7587C7.86073 10.8147 7.72879 10.899 7.61742 11.0068C7.50605 11.1145 7.41751 11.2433 7.35705 11.3857C7.29659 11.5281 7.26544 11.6812 7.26544 11.8358C7.26544 11.9904 7.29659 12.1435 7.35705 12.2859C7.41751 12.4283 7.50605 12.5571 7.61742 12.6649C7.72879 12.7726 7.86073 12.8569 8.00542 12.9129C8.15012 12.9689 8.30462 12.9954 8.45979 12.9909Z" fill="#FF650C"></path>
        <path d="M10.0073 43.0315H8.45968C8.15198 43.0315 7.85689 43.1532 7.63931 43.37C7.42173 43.5867 7.2995 43.8806 7.2995 44.1871C7.2995 44.4935 7.42173 44.7875 7.63931 45.0042C7.85689 45.2209 8.15198 45.3426 8.45968 45.3426H10.0073C10.315 45.3426 10.6101 45.2209 10.8276 45.0042C11.0452 44.7875 11.1674 44.4935 11.1674 44.1871C11.1674 43.8806 11.0452 43.5867 10.8276 43.37C10.6101 43.1532 10.315 43.0315 10.0073 43.0315Z" fill="#FF650C"></path>
        <path d="M10.0073 49.955H8.45968C8.15198 49.955 7.85689 50.0767 7.63931 50.2934C7.42173 50.5101 7.2995 50.804 7.2995 51.1105C7.2995 51.417 7.42173 51.7109 7.63931 51.9276C7.85689 52.1443 8.15198 52.2661 8.45968 52.2661H10.0073C10.315 52.2661 10.6101 52.1443 10.8276 51.9276C11.0452 51.7109 11.1674 51.417 11.1674 51.1105C11.1674 50.804 11.0452 50.5101 10.8276 50.2934C10.6101 50.0767 10.315 49.955 10.0073 49.955Z" fill="#FF650C"></path>
        <path d="M17.7412 6.05946H8.45979C8.30462 6.05491 8.15012 6.08142 8.00542 6.13742C7.86073 6.19341 7.72879 6.27777 7.61742 6.38547C7.50605 6.49318 7.41751 6.62205 7.35705 6.76446C7.29659 6.90687 7.26544 7.05991 7.26544 7.21452C7.26544 7.36914 7.29659 7.52218 7.35705 7.66459C7.41751 7.80699 7.50605 7.93587 7.61742 8.04357C7.72879 8.15128 7.86073 8.23563 8.00542 8.29163C8.15012 8.34763 8.30462 8.37414 8.45979 8.36959H17.7402C18.0419 8.36074 18.3282 8.23516 18.5384 8.01951C18.7487 7.80386 18.8662 7.51511 18.8662 7.21452C18.8662 6.91394 18.7487 6.62519 18.5384 6.40954C18.3282 6.19389 18.0419 6.06831 17.7402 6.05946H17.7412Z" fill="#FF650C"></path>
        <path d="M54.861 0H13.1026C12.7949 4.56683e-09 12.4998 0.121747 12.2822 0.338457C12.0646 0.555168 11.9424 0.849091 11.9424 1.15557C11.9424 1.46204 12.0646 1.75596 12.2822 1.97267C12.4998 2.18938 12.7949 2.31113 13.1026 2.31113H54.861C55.3736 2.31166 55.8651 2.51464 56.2276 2.87556C56.5902 3.23647 56.7942 3.72586 56.795 4.23641V54.7646C56.7942 55.2751 56.5902 55.7645 56.2276 56.1254C55.8651 56.4864 55.3736 56.6893 54.861 56.6899H51.7679C51.6127 56.6853 51.4582 56.7118 51.3135 56.7678C51.1688 56.8238 51.0369 56.9082 50.9255 57.0159C50.8142 57.1236 50.7256 57.2525 50.6652 57.3949C50.6047 57.5373 50.5736 57.6903 50.5736 57.8449C50.5736 57.9995 50.6047 58.1526 50.6652 58.295C50.7256 58.4374 50.8142 58.5663 50.9255 58.674C51.0369 58.7817 51.1688 58.866 51.3135 58.922C51.4582 58.978 51.6127 59.0046 51.7679 59H54.861C55.9886 58.9989 57.0697 58.5524 57.8671 57.7584C58.6645 56.9643 59.113 55.8877 59.1144 54.7646V4.23641C59.1133 3.11317 58.6648 2.03624 57.8674 1.24199C57.07 0.447737 55.9888 0.00106141 54.861 0V0Z" fill="#FF650C"></path>
        <path d="M34.7545 49.955H33.2129C32.9052 49.955 32.6101 50.0767 32.3925 50.2934C32.175 50.5101 32.0527 50.804 32.0527 51.1105C32.0527 51.417 32.175 51.7109 32.3925 51.9276C32.6101 52.1443 32.9052 52.2661 33.2129 52.2661H34.7595C35.0672 52.2661 35.3623 52.1443 35.5799 51.9276C35.7974 51.7109 35.9197 51.417 35.9197 51.1105C35.9197 50.804 35.7974 50.5101 35.5799 50.2934C35.3623 50.0767 35.0672 49.955 34.7595 49.955H34.7545Z" fill="#FF650C"></path>
        <path d="M14.648 45.3427H19.2878C19.4788 45.3427 19.6668 45.2956 19.8351 45.2058C20.0035 45.1159 20.1469 44.986 20.2527 44.8276L23.3459 40.2063C23.4348 40.0802 23.4974 39.9377 23.5302 39.7871C23.563 39.6365 23.5652 39.4809 23.5367 39.3294C23.5082 39.178 23.4496 39.0337 23.3643 38.9052C23.279 38.7766 23.1687 38.6664 23.04 38.5809C22.9113 38.4954 22.7667 38.4364 22.6148 38.4074C22.4629 38.3784 22.3066 38.3799 22.1553 38.4119C22.004 38.4439 21.8606 38.5058 21.7336 38.5938C21.6067 38.6818 21.4986 38.7942 21.4159 38.9245L18.6669 43.0336H14.648C14.3403 43.0336 14.0452 43.1553 13.8277 43.372C13.6101 43.5887 13.4879 43.8827 13.4879 44.1891C13.4879 44.4956 13.6101 44.7895 13.8277 45.0062C14.0452 45.223 14.3403 45.3447 14.648 45.3447V45.3427Z" fill="#FF650C"></path>
        <path d="M14.648 52.2661H20.8363C21.144 52.2661 21.4391 52.1443 21.6567 51.9276C21.8743 51.7109 21.9965 51.417 21.9965 51.1105C21.9965 50.804 21.8743 50.5101 21.6567 50.2934C21.4391 50.0767 21.144 49.955 20.8363 49.955H14.648C14.3403 49.955 14.0452 50.0767 13.8277 50.2934C13.6101 50.5101 13.4879 50.804 13.4879 51.1105C13.4879 51.417 13.6101 51.7109 13.8277 51.9276C14.0452 52.1443 14.3403 52.2661 14.648 52.2661Z" fill="#FF650C"></path>
      </g>
    </g>
    <defs>
      <clipPath id="clip0">
        <rect width="59" height="59" fill="white" transform="translate(0.5)"></rect>
      </clipPath>
      <clipPath id="clip1">
        <rect width="58" height="59" fill="white" transform="translate(1.11426)"></rect>
      </clipPath>
    </defs>
  </symbol>
  <symbol fill="none" xmlns="http://www.w3.org/2000/svg" viewBox="0 0 60 59" id="icon-3">
    <path d="M45.6614 57C48.1169 57 50.1145 55.0023 50.1145 52.5469V6.23259V5.30189V4.45312C50.1145 1.99767 48.1169 0 45.6614 0H13.5953C11.1399 0 9.14221 1.99767 9.14221 4.45312V5.30189V6.23259V52.5469C9.14221 55.0023 11.1399 57 13.5953 57H45.6614ZM48.3333 9.79688C48.3333 11.27 47.1345 12.4688 45.6614 12.4688H13.5953C12.1222 12.4688 10.9235 11.27 10.9235 9.79688V9.77283C11.6698 10.3384 12.5889 10.6857 13.5953 10.6857H45.6614C46.6678 10.6857 47.5869 10.3375 48.3333 9.77283V9.79688ZM10.9235 13.3371C11.6698 13.9027 12.5889 14.25 13.5953 14.25H45.6614C46.6678 14.25 47.5869 13.9018 48.3333 13.3371V48.9844C48.3333 50.4575 47.1345 51.6562 45.6614 51.6562H13.5953C12.1222 51.6562 10.9235 50.4575 10.9235 48.9844V13.3371ZM10.9235 4.45312C10.9235 2.98003 12.1222 1.78125 13.5953 1.78125H45.6614C47.1345 1.78125 48.3333 2.98003 48.3333 4.45312V5.30189V6.23259C48.3333 7.70569 47.1345 8.90447 45.6614 8.90447H13.5953C12.1222 8.90447 10.9235 7.70569 10.9235 6.23259V5.30189V4.45312ZM10.9235 52.5469V52.5246C11.6698 53.0902 12.5889 53.4375 13.5953 53.4375H45.6614C46.6678 53.4375 47.5869 53.0893 48.3333 52.5246V52.5469C48.3333 54.02 47.1345 55.2188 45.6614 55.2188H13.5953C12.1222 55.2188 10.9235 54.02 10.9235 52.5469Z" fill="#FF650C"></path>
    <path d="M13.5953 6.23438H45.6578C46.1504 6.23438 46.5485 5.83627 46.5485 5.34375C46.5485 4.85123 46.1504 4.45312 45.6578 4.45312H13.5953C13.1028 4.45312 12.7047 4.85123 12.7047 5.34375C12.7047 5.83627 13.1028 6.23438 13.5953 6.23438Z" fill="#FF650C"></path>
    <path d="M29.6269 41.8594C32.957 41.8594 36.0884 40.5626 38.4432 38.2069C43.3051 33.345 43.3051 25.4354 38.4432 20.5734C36.0884 18.2186 32.957 16.9219 29.6269 16.9219C26.2969 16.9219 23.1654 18.2186 20.8106 20.5743C15.9487 25.4362 15.9487 33.3459 20.8106 38.2078C23.1654 40.5626 26.2969 41.8594 29.6269 41.8594ZM22.07 21.8337C24.0881 19.8146 26.7725 18.7031 29.6269 18.7031C32.4814 18.7031 35.1657 19.8146 37.1839 21.8337C41.3511 26.0009 41.3511 32.7812 37.1839 36.9485C35.1657 38.9666 32.4814 40.0781 29.6269 40.0781C26.7725 40.0781 24.0881 38.9666 22.07 36.9476C17.9027 32.7812 17.9027 26 22.07 21.8337Z" fill="#FF650C"></path>
    <path d="M24.5876 37.0956C25.2725 37.0956 25.9565 36.8355 26.4767 36.3145L29.6241 33.167C29.9724 32.8188 29.9724 32.2559 29.6241 31.9077L28.9962 31.2798L29.6909 30.586C30.4141 31.0652 31.2611 31.3243 32.1473 31.3243C33.3354 31.3243 34.454 30.8603 35.2956 30.0196C36.8774 28.4378 36.8409 23.9509 36.8177 23.0665C36.8043 22.5935 36.424 22.2124 35.9502 22.199C35.9502 22.199 35.8193 22.1954 35.5931 22.1954C33.6996 22.1954 30.325 22.394 28.998 23.7211C27.4777 25.2414 27.2889 27.5962 28.4316 29.3249L27.736 30.0187L27.1054 29.3872C26.7572 29.039 26.1943 29.039 25.8461 29.3872L22.6986 32.5347C21.6566 33.5767 21.6566 35.2716 22.6986 36.3145C23.2197 36.8355 23.9037 37.0956 24.5876 37.0956ZM30.2574 24.9813C30.814 24.4247 32.6995 24.0372 35.0373 23.9838C34.9964 25.8087 34.698 28.0985 34.0363 28.7602C33.0254 29.7693 31.27 29.7684 30.2591 28.762C30.2591 28.7611 30.2583 28.7611 30.2583 28.7602C30.2574 28.7593 30.2565 28.7593 30.2565 28.7593C29.2162 27.7164 29.2162 26.0233 30.2574 24.9813ZM23.958 35.0552C23.6106 34.7069 23.6106 34.1432 23.958 33.7949L26.4758 31.2771L27.1028 31.905C27.1037 31.9059 27.1046 31.9077 27.1054 31.9086C27.1063 31.9095 27.1081 31.9104 27.109 31.9113L27.7351 32.5374L25.2173 35.0552C24.8691 35.4016 24.3053 35.4016 23.958 35.0552Z" fill="#FF650C"></path>
    <path d="M18.0487 46.3285H41.205C41.6975 46.3285 42.0956 45.9304 42.0956 45.4379C42.0956 44.9454 41.6975 44.5472 41.205 44.5472H18.0487C17.5562 44.5472 17.1581 44.9454 17.1581 45.4379C17.1581 45.9304 17.5562 46.3285 18.0487 46.3285Z" fill="#FF650C"></path>
    <path d="M35.8469 47.222H23.4066C22.9141 47.222 22.516 47.6202 22.516 48.1127C22.516 48.6052 22.9141 49.0033 23.4066 49.0033H35.8478C36.3403 49.0033 36.7384 48.6052 36.7384 48.1127C36.7384 47.6202 36.3394 47.222 35.8469 47.222Z" fill="#FF650C"></path>
  </symbol>
  <symbol fill="none" xmlns="http://www.w3.org/2000/svg" viewBox="0 0 59 59" id="icon-5">
    <path d="M16.2549 49.9863C15.6404 49.9863 15.1416 50.4851 15.1416 51.0996C15.1416 51.7141 15.6404 52.2129 16.2549 52.2129C16.8694 52.2129 17.3682 51.7141 17.3682 51.0996C17.3682 50.4851 16.8694 49.9863 16.2549 49.9863Z" fill="#FF650C"></path>
    <path d="M31.8408 49.9863H20.708C20.0931 49.9863 19.5947 50.4847 19.5947 51.0996C19.5947 51.7145 20.0931 52.2129 20.708 52.2129H31.8408C32.4557 52.2129 32.9541 51.7145 32.9541 51.0996C32.9541 50.4847 32.4557 49.9863 31.8408 49.9863Z" fill="#FF650C"></path>
    <path d="M58.114 14.4679C58.1119 14.0004 57.8175 13.5951 57.3999 13.4331L26.225 0.808688C25.6187 0.286002 24.855 0 24.0479 0C22.89 0 21.8128 0.612193 21.2088 1.5842L1.64763 13.5224C1.31743 13.7236 1.11426 14.0919 1.11426 14.4727V18.9258C1.11426 19.5406 1.61267 20.0391 2.22754 20.0391H3.34082V25.6055C3.34082 26.2203 3.83924 26.7188 4.4541 26.7188H14.0283C14.6432 26.7188 15.1416 26.2203 15.1416 25.6055V20.0391H17.3682C17.3682 21.1728 17.3682 44.7919 17.3682 45.5332H14.0283C12.1867 45.5332 10.6885 47.0315 10.6885 48.873V55.8867C10.6885 56.5015 11.1869 57 11.8018 57H36.2939C36.9088 57 37.4072 56.5015 37.4072 55.8867V48.873C37.4072 47.0315 35.909 45.5332 34.0674 45.5332H30.7275C30.7275 44.3726 30.7275 21.1849 30.7275 20.0391H46.9814V24.5701C46.9814 24.8654 47.0988 25.1486 47.3075 25.3573L49.208 27.2579V33.9232C47.912 34.3827 46.9814 35.6209 46.9814 37.0724C46.9814 38.914 48.4797 40.4122 50.3213 40.4122C51.6084 40.4122 52.7946 39.6599 53.3434 38.4955C53.6055 37.9393 53.3671 37.276 52.8109 37.0138C52.2546 36.7518 51.5913 36.9901 51.3293 37.5463C51.1462 37.9346 50.7506 38.1855 50.3213 38.1855C49.7074 38.1855 49.208 37.6861 49.208 37.0723C49.208 36.4584 49.7074 35.959 50.3213 35.959C50.9362 35.959 51.4346 35.4606 51.4346 34.8457V27.2579L53.3351 25.3574C53.5438 25.1487 53.6611 24.8655 53.6611 24.5702V20.0391H57.001C57.6158 20.0391 58.1143 19.5406 58.1143 18.9258V14.4727C58.1143 14.471 58.114 14.4694 58.114 14.4679ZM22.9346 3.33984C22.9346 2.70494 23.4554 2.22656 24.0479 2.22656C24.6592 2.22656 25.1611 2.72253 25.1611 3.33984V11.1328H22.9346V3.33984ZM21.8213 13.3594C22.4543 13.3594 27.5866 13.3594 28.501 13.3594C28.501 14.1572 28.501 20.133 28.501 20.968L21.1139 13.3594H21.8213ZM21.1139 36.293H28.501V43.9016L21.1139 36.293ZM26.9818 45.5332H19.5947V37.9246L26.9818 45.5332ZM19.5947 34.0664V26.4578L26.9818 34.0664H19.5947ZM21.1139 24.8262H28.501V32.4348L21.1139 24.8262ZM19.5947 22.5996C19.5947 21.893 19.5947 15.8166 19.5947 14.991L26.9818 22.5996H19.5947ZM20.708 4.49844V11.1328H18.4814C18.4762 11.1328 18.4711 11.1335 18.4659 11.1336C18.4516 11.1338 18.4374 11.1347 18.423 11.1354C18.4085 11.1362 18.3941 11.1366 18.3796 11.1379C18.3683 11.1389 18.3573 11.1405 18.3463 11.1418C18.3409 11.1425 18.3356 11.1424 18.3303 11.1432L7.35709 12.6463L20.708 4.49844ZM12.915 24.4922H5.56738V20.0391H12.915V24.4922ZM3.34082 17.8125V15.4439L17.3682 13.5224V17.8125C12.4706 17.8125 14.1438 17.8125 3.34082 17.8125ZM34.0674 47.7598C34.6812 47.7598 35.1807 48.2592 35.1807 48.873V54.7734H12.915V48.873C12.915 48.2592 13.4145 47.7598 14.0283 47.7598C14.5643 47.7598 33.5319 47.7598 34.0674 47.7598ZM29.7045 11.1365C29.6902 11.1354 29.6759 11.1358 29.6616 11.1353C29.6457 11.1345 29.6302 11.1328 29.6143 11.1328H27.3877V3.68173L49.8387 12.7733L29.7045 11.1365ZM51.4346 24.109L50.3213 25.2223L49.208 24.109V20.0391H51.4346V24.109ZM55.8877 17.8125H30.7275V13.4536L55.8877 15.4991V17.8125Z" fill="#FF650C"></path>
  </symbol>
  <symbol fill="none" xmlns="http://www.w3.org/2000/svg" viewBox="0 0 49 59" id="icon-4">
    <path d="M46.3124 43.4676C45.0152 41.4597 43.2327 39.8643 41.1445 38.834C40.9684 38.6705 40.742 38.5609 40.4902 38.5329C38.9798 37.8917 37.3878 37.5664 35.7518 37.5664H32.2947V34.5262C34.2953 32.8096 35.7336 30.5361 36.431 28.002H36.9041C39.4457 28.002 41.5135 25.9342 41.5135 23.3926C41.5135 22.1881 41.0486 21.0907 40.2895 20.2686C40.3619 20.207 40.4327 20.143 40.5007 20.0751C41.1538 19.4219 41.5135 18.5539 41.5135 17.6309C41.5135 16.114 40.531 14.8231 39.1693 14.3587C38.7622 9.05973 35.0432 4.53148 29.9228 3.11225C29.6193 1.52755 28.3115 0 26.533 0H21.9236C20.1451 0 18.8373 1.52755 18.5339 3.11225C13.4139 4.53136 9.69532 9.0588 9.2875 14.357C8.79177 14.5252 8.33717 14.8055 7.95597 15.1866C7.30282 15.8398 6.94318 16.7078 6.94318 17.6309C6.94318 18.6868 7.41955 19.6331 8.16812 20.2677C7.40849 21.0897 6.94318 22.1877 6.94318 23.3926C6.94318 25.9342 9.01094 28.002 11.5526 28.002H12.0225C12.6046 30.1173 13.7085 32.0594 15.2483 33.6635C15.5377 33.9652 15.8445 34.2526 16.1619 34.5253V37.5664H12.7049C11.0688 37.5664 9.47672 37.8917 7.96646 38.5328C7.71479 38.5609 7.48823 38.6703 7.31227 38.8339C5.22388 39.8643 3.44143 41.4597 2.14424 43.4674C0.760507 45.6093 0.0291138 48.0715 0.0291138 50.5879V57.8477C0.0291138 58.484 0.545018 59 1.18146 59H47.2752C47.9116 59 48.4276 58.484 48.4276 57.8477V50.5879C48.4276 48.0715 47.6962 45.6093 46.3124 43.4676ZM6.94318 56.6953H2.3338V50.5879C2.3338 47.0828 4.12938 43.7233 6.94318 41.7289V56.6953ZM36.9041 25.6973H36.8516C36.8859 25.3139 36.9041 24.9291 36.9041 24.5449V21.0879C38.1749 21.0879 39.2088 22.1218 39.2088 23.3926C39.2088 24.6634 38.1749 25.6973 36.9041 25.6973ZM18.4666 5.54727V10.7168C18.4666 11.3532 18.9825 11.8691 19.619 11.8691C20.2554 11.8691 20.7713 11.3532 20.7713 10.7168V4.04046C20.7713 4.03747 20.7713 4.03447 20.7713 4.03147V3.80273C20.7713 3.08874 21.3744 2.30469 21.9236 2.30469H26.533C27.0822 2.30469 27.6854 3.08874 27.6854 3.80273V4.03147C27.6854 4.03447 27.6854 4.03747 27.6854 4.04046V10.7168C27.6854 11.3532 28.2013 11.8691 28.8377 11.8691C29.4741 11.8691 29.9901 11.3532 29.9901 10.7168V5.54727C33.711 6.86405 36.3971 10.2312 36.8397 14.1738H11.617C12.0596 10.2312 14.7457 6.86405 18.4666 5.54727ZM11.5526 25.6973C10.2817 25.6973 9.24786 24.6634 9.24786 23.3926C9.24786 22.1218 10.2817 21.0879 11.5526 21.0879V24.5449C11.5526 24.9291 11.5708 25.314 11.6051 25.6973H11.5526ZM11.5526 18.7832H10.4002C9.7648 18.7832 9.24786 18.2663 9.24786 17.6309C9.24786 17.3234 9.36782 17.0341 9.58562 16.8164C9.80352 16.5985 10.0928 16.4785 10.4002 16.4785H38.0565C38.6919 16.4785 39.2088 16.9955 39.2088 17.6309C39.2088 17.9383 39.0888 18.2277 38.871 18.4453C38.6533 18.6632 38.3639 18.7832 38.0565 18.7832H36.9041H35.7518H12.7049H11.5526ZM14.0666 26.6402C14.0643 26.6277 14.0621 26.6152 14.0594 26.6029C13.9256 25.9266 13.8572 25.2344 13.8572 24.5449V21.0879H34.5994V24.5449C34.5994 25.2338 34.5311 25.9255 34.3973 26.6024C34.3945 26.6149 34.3924 26.6274 34.39 26.64C33.8751 29.2105 32.4498 31.5115 30.3745 33.1209C28.5715 34.5215 26.4462 35.2617 24.2283 35.2617C22.0104 35.2617 19.8851 34.5215 18.0805 33.1196C17.6673 32.8 17.2742 32.4463 16.9114 32.068C15.4577 30.5536 14.4745 28.6775 14.0666 26.6402ZM23.076 56.6953H13.8572V54.0449C13.8572 53.4085 13.3413 52.8926 12.7049 52.8926C12.0685 52.8926 11.5526 53.4085 11.5526 54.0449V56.6953H9.24786V40.5019C9.99574 40.2199 10.7662 40.032 11.5526 39.9393V47.1309C11.5526 47.7673 12.0685 48.2832 12.7049 48.2832C13.3413 48.2832 13.8572 47.7673 13.8572 47.1309V39.8711H16.8205L23.076 46.4395V56.6953ZM18.4666 38.2578V36.1115C20.2448 37.0673 22.2033 37.5664 24.2283 37.5664C26.2535 37.5664 28.2121 37.0672 29.9901 36.1116V38.2578L24.2283 44.3076L18.4666 38.2578ZM39.2088 56.6953H36.9041V54.0449C36.9041 53.4085 36.3882 52.8926 35.7518 52.8926C35.1153 52.8926 34.5994 53.4085 34.5994 54.0449V56.6953H25.3807V46.4395L31.6362 39.8711H34.5994V47.1309C34.5994 47.7673 35.1153 48.2832 35.7518 48.2832C36.3882 48.2832 36.9041 47.7673 36.9041 47.1309V39.9393C37.6905 40.032 38.4608 40.22 39.2088 40.502V56.6953ZM46.1229 56.6953H41.5135V41.7288C44.3273 43.7231 46.1229 47.0827 46.1229 50.5879V56.6953Z" fill="#FF650C"></path>
  </symbol>
  <symbol fill="none" xmlns="http://www.w3.org/2000/svg" viewBox="0 0 58 57" id="icon-6">
    <path d="M2.31817 44.6356L18.5426 28.4112L1.25654 11.1252C0.821804 10.6904 0.821804 9.98549 1.25654 9.55064L10.4511 0.356128C10.8859 -0.0784989 11.5906 -0.0784989 12.0256 0.356128L29.3116 17.6422L44.6521 2.30171C44.6524 2.30137 44.6529 2.30104 44.6532 2.3007L44.8058 2.14818C44.9708 1.98331 45.1837 1.87432 45.4139 1.8368L56.6084 0.0146831C56.9625 -0.0427624 57.3214 0.0732419 57.5745 0.326292C57.8277 0.579453 57.9437 0.938933 57.8861 1.29229L56.0641 12.4868C56.0266 12.7171 55.9177 12.9298 55.7528 13.0949L55.6002 13.2475C55.5999 13.2479 55.5996 13.2483 55.5992 13.2486L40.2587 28.5892L57.5447 45.8753C57.9794 46.31 57.9794 47.0149 57.5447 47.4498L48.3502 56.6443C48.1328 56.8616 47.8479 56.9704 47.563 56.9704C47.2781 56.9704 46.9932 56.8616 46.7758 56.6443L29.4896 39.3582L13.2651 55.5827C12.3509 56.4968 11.1354 57.0002 9.84264 57.0002C8.5499 57.0002 7.33441 56.4968 6.42029 55.5827L2.31828 51.4805C1.40405 50.5664 0.900623 49.3509 0.900623 48.0582C0.900623 46.7654 1.40405 45.5499 2.31817 44.6356ZM11.2383 2.71785L3.61826 10.3378L6.17771 12.8973L9.05867 10.0162C9.49341 9.58182 10.1981 9.58159 10.6332 10.0162C11.0679 10.451 11.0679 11.1559 10.6332 11.5907L7.75223 14.4718L11.4993 18.2189L13.6275 16.0908C14.0623 15.6561 14.767 15.6561 15.202 16.0908C15.6367 16.5255 15.6367 17.2304 15.202 17.6653L13.0738 19.7934L16.8209 23.5405L19.702 20.6596C20.1369 20.2249 20.8416 20.2249 21.2765 20.6596C21.7113 21.0943 21.7113 21.7992 21.2765 22.2341L18.3955 25.115L20.1172 26.8367L27.7372 19.2167L11.2383 2.71785ZM45.4394 4.66343L9.74757 40.3554L11.0606 41.6683L46.7524 5.97644L45.4394 4.66343ZM55.44 2.46068L47.6531 3.72816L54.1727 10.2478L55.44 2.46068ZM32.7858 39.5054L34.9139 37.3771C35.3486 36.9427 36.0533 36.9425 36.4885 37.3771C36.9232 37.8118 36.9232 38.5168 36.4885 38.9516L34.3603 41.0799L38.1074 44.827L40.9885 41.9459C41.4233 41.5113 42.128 41.5113 42.563 41.9459C42.9977 42.3807 42.9977 43.0856 42.563 43.5204L39.6819 46.4015L43.429 50.1486L45.5573 48.0205C45.9921 47.5858 46.6968 47.5858 47.1318 48.0205C47.5665 48.4552 47.5665 49.1601 47.1318 49.595L45.0035 51.7231L47.563 54.2826L55.183 46.6626L38.6842 30.1637L31.0642 37.7837L32.7858 39.5054ZM17.5456 48.1533L53.2375 12.4614L48.3268 7.55096L12.635 43.2428L14.658 45.2659L44.6521 15.2718C45.0869 14.8372 45.7916 14.8372 46.2266 15.2718C46.6613 15.7066 46.6613 16.4115 46.2266 16.8463L16.2326 46.8403L17.5456 48.1533ZM3.89269 49.906L7.99481 54.0083C8.48845 54.5019 9.14462 54.7736 9.84275 54.7736C10.5409 54.7736 11.1972 54.5019 11.6908 54.0082L15.9712 49.7278L8.17316 41.9298L3.8928 46.2101C3.39906 46.7038 3.1273 47.3601 3.1273 48.0582C3.1273 48.7563 3.39894 49.4125 3.89269 49.906Z" fill="#FF650C"></path>
  </symbol>
</svg>